<svg xmlns="http://www.w3.org/2000/svg" width="31.544" height="29.434" viewBox="0 0 31.544 29.434">
  <path id="Icon_ionic-ios-star" data-name="Icon ionic-ios-star" d="M30.673,12.871h-9.7l-2.948-8.8a1.068,1.068,0,0,0-2,0l-2.948,8.8H3.305A1.058,1.058,0,0,0,2.25,13.927a.775.775,0,0,0,.02.178,1.014,1.014,0,0,0,.442.745l7.973,5.619-3.06,8.9a1.058,1.058,0,0,0,.363,1.187,1.02,1.02,0,0,0,.594.257,1.293,1.293,0,0,0,.659-.237l7.782-5.546L24.8,30.572a1.236,1.236,0,0,0,.659.237.947.947,0,0,0,.587-.257,1.045,1.045,0,0,0,.363-1.187l-3.06-8.9L31.26,14.8l.191-.165a1.106,1.106,0,0,0,.343-.706A1.117,1.117,0,0,0,30.673,12.871Z" transform="translate(-1.25 -2.375)" fill="none" stroke="#00454e" stroke-width="2"/>
</svg>
